<svg xmlns="http://www.w3.org/2000/svg" width="40" height="40" viewBox="0 0 380 380"><path class="cls-1" d="M22.6 47.62c-4.75 6-4.75 11.8.35 17.25 2.11 2.29 27.64 17.08 56.87 32.57l53 28.35L146.9 120c7.75-3 14.26-6.34 14.44-7.22C162 110.29 36.33 43.22 30.88 43a10.56 10.56 0 0 0-8.28 4.62zm154.23 4.22c-9.68 7.57-12 23.59-6.51 44 3.17 11.09 3.87 11.44 12.85 6.34l8.1-4.75-6-7.92c-9-11.62-10.56-28.17-3.52-35.92 4.25-4.59.36-5.8-4.92-1.75z"/><path class="cls-1" d="M216.09 49.2a44.33 44.33 0 0 0 3.52 6.51c7.57 12.5 1.76 30.11-15 44.89-11.09 10-25.88 18.31-47.18 26.76C92 153.43 68.2 182.13 68.2 235.12c.18 53.52 21.13 82.57 66.9 92.43 18 3.87 58.1 3.87 75.7 0 29.75-6.34 49.47-22.36 56.51-45.42 3.35-10.56 3.7-15.32 2.82-32-.88-21.48-4.4-33.1-12.15-41.2-2.64-2.64-17.78-11.44-34-19.72l-29.23-15-13 13.56c-7 7.39-14.79 16.9-16.9 21.13a40.49 40.49 0 0 0-.53 34.33c2.11 4.23 3.35 7.57 3 7.57a24.93 24.93 0 0 1-6-3.7c-8.27-5.81-10.92-12.85-9.86-25.53 1.23-17.25 14.08-38.2 41.37-68.49 23.59-25.88 35.74-47.18 39.08-68.31 2.29-14.61.18-24.3-7-31.51-4.42-4.41-8.82-6.52-8.82-4.06z"/><path class="cls-1" d="M210.28 152.2l-8.1 10.39 5.63 3.35c3.17 1.94 37.5 20.25 76.23 40.67 77.29 40.85 77.29 40.85 82.92 29.23 1.94-4.23 2.29-7 1.06-10.74-1.76-5.1-11.26-10.58-123.02-69.38l-26.62-14.08z"/></svg>